<svg id="Group_16820" data-name="Group 16820" xmlns="http://www.w3.org/2000/svg" width="160.078" height="67.585" viewBox="0 0 160.078 67.585">
  <g id="Group_8815" data-name="Group 8815">
    <g id="Group_8814" data-name="Group 8814">
      <path id="Path_10143" data-name="Path 10143" d="M4397.1,1054.421V1041.4h4.814l2.143,8.12,2.147-8.12h4.81v13.025h-3.574v-3.981l.052-2.024.2-2.352h-.029l-2.216,8.357h-2.769l-2.208-8.357h-.039l.169,1.914.081,2.029v4.414Z" transform="translate(-4379.286 -1014.165)" fill="red"/>
      <path id="Path_10144" data-name="Path 10144" d="M4403.6,1054.428l4.4-13.032h4.1l4.388,13.032h-4l-.48-1.72h-4l-.464,1.72Zm6.409-9.1-1.24,4.668h2.543Z" transform="translate(-4368.106 -1014.165)" fill="red"/>
      <path id="Path_10145" data-name="Path 10145" d="M4415.11,1049.859v4.508h-4.475v-12.938h6.446c4.554,0,6.052,1.171,6.052,3.684a3.012,3.012,0,0,1-2.291,3.166c1.437.5,2.312.822,2.312,3.429,0,1.691-.061,2.266.472,2.266v.394h-4.537a8.2,8.2,0,0,1-.221-2.263c0-1.691-.312-2.245-2.389-2.245Zm0-2.838h1.768c1.382,0,2.121-.325,2.121-1.223,0-.917-.759-1.347-1.8-1.347h-2.084Z" transform="translate(-4356.343 -1014.111)" fill="red"/>
      <path id="Path_10146" data-name="Path 10146" d="M4425.105,1041.421h4.406v7.8c0,1.287.27,2.39,2.081,2.39,1.583,0,2.052-.977,2.052-2.39v-7.8h4.408v7.367c0,4.182-2,6.012-6.459,6.012-4.165,0-6.487-1.541-6.487-6.033Z" transform="translate(-4332.146 -1014.12)" fill="red"/>
      <path id="Path_10147" data-name="Path 10147" d="M4432.65,1054.385v-12.964H4445.3v3.024h-9.371v1.854h8.2v3.027h-8.2v2.032h9.674v3.027Z" transform="translate(-4319.53 -1014.124)" fill="red"/>
      <path id="Path_10148" data-name="Path 10148" d="M4446.7,1045.339a1.085,1.085,0,0,0-.662-.835,2.871,2.871,0,0,0-1.195-.223c-1.021,0-1.469.26-1.469.7,0,1.843,8.1.7,8.1,5.17,0,2.846-2.715,4.224-6.592,4.224-3.715,0-6.144-1.893-6.24-4.106h4.421a1.43,1.43,0,0,0,.761.971,2.864,2.864,0,0,0,1.318.307c1.149,0,1.917-.323,1.917-.9,0-1.861-8.105-.58-8.105-5.269,0-2.607,2.588-3.923,6.1-3.923,3.914,0,5.7,1.741,6.028,3.889Z" transform="translate(-4309.208 -1014.076)" fill="red"/>
      <path id="Path_10149" data-name="Path 10149" d="M4390.313,1043.769v.662h14.546v-.662Z" transform="translate(-4390.313 -1010.308)" fill="red" fill-rule="evenodd"/>
      <path id="Path_10150" data-name="Path 10150" d="M4438.257,1031.229h.845v3.666c16.137.231,29.225,13.671,29.225,30.126s-13.088,29.895-29.225,30.127v3.665h-.845v-3.665c-16.144-.232-29.237-13.676-29.237-30.127s13.094-29.895,29.237-30.126v-3.666Zm.845,4.957v3.65h-.845v-3.65c-15.443.226-27.963,13.094-27.963,28.835a28.679,28.679,0,0,0,27.963,28.836V1090.2h.845v3.655c15.435-.23,27.957-13.1,27.957-28.836s-12.522-28.609-27.957-28.835Z" transform="translate(-4358.636 -1031.229)" fill="red" fill-rule="evenodd"/>
      <path id="Path_10151" data-name="Path 10151" d="M4444.773,1043.769v.662h14.544v-.662Z" transform="translate(-4299.24 -1010.308)" fill="red" fill-rule="evenodd"/>
      <path id="Path_10152" data-name="Path 10152" d="M4443.089,1068.889l-1.979,1.979h6.113v-6.117l-1.972,1.979-9.414-9.425a11.2,11.2,0,1,0-2.178,2.15l9.43,9.433Zm-12.61-12.625a6.556,6.556,0,1,1,3.121-5.584,6.469,6.469,0,0,1-.963,3.4l-.325-.3-4.193-4.179-2.161,2.16,4.188,4.177Z" transform="translate(-4347.146 -1016.823)" fill="red" fill-rule="evenodd"/>
    </g>
  </g>
</svg>
