<svg id="Group_17866" data-name="Group 17866" xmlns="http://www.w3.org/2000/svg" width="24" height="24" viewBox="0 0 24 24">
  <path id="Path_11687" data-name="Path 11687" d="M19,11.6V19a2.051,2.051,0,0,1-2,2H5a2.051,2.051,0,0,1-2-2V7A2.051,2.051,0,0,1,5,5h7.4l-2,2H5V19H17V13.6ZM10.8,17l9-9.1L16,4.2,7,13.3V17ZM9,14.1,16,7l1,.9L9.9,15H9Zm12.7-8a1.33,1.33,0,0,0,.3-.8.908.908,0,0,0-.3-.7L19.3,2.2a.845.845,0,0,0-.6-.2.908.908,0,0,0-.7.3l-.8.8L21,6.9Z" fill="red"/>
  <rect id="Rectangle_12639" data-name="Rectangle 12639" width="24" height="24" fill="none"/>
</svg>
