<svg xmlns="http://www.w3.org/2000/svg" width="24" height="24" viewBox="0 0 24 24">
  <g id="Group_17860" data-name="Group 17860" transform="translate(-1232 -16)">
    <g id="Group_17857" data-name="Group 17857" transform="translate(1232 16)">
      <rect id="Rectangle_12373" data-name="Rectangle 12373" width="24" height="24" fill="none"/>
    </g>
    <g id="Group_17859" data-name="Group 17859" transform="translate(1232 16)">
      <g id="Group_17858" data-name="Group 17858">
        <path id="Path_11597" data-name="Path 11597" d="M12,2A10,10,0,1,0,22,12,10,10,0,0,0,12,2ZM7.35,18.5a7.957,7.957,0,0,1,9.3,0,7.957,7.957,0,0,1-9.3,0Zm10.79-1.38h0a9.951,9.951,0,0,0-12.28,0h0a8,8,0,1,1,12.28,0Z" fill="red"/>
        <path id="Path_11598" data-name="Path 11598" d="M12,6a3.5,3.5,0,1,0,3.5,3.5A3.5,3.5,0,0,0,12,6Zm0,5a1.5,1.5,0,1,1,1.5-1.5A1.5,1.5,0,0,1,12,11Z" fill="red"/>
      </g>
    </g>
  </g>
</svg>
